<svg xmlns="http://www.w3.org/2000/svg" viewBox="0 0 1200 600" role="img" aria-labelledby="t d"><title id="t">Woodland festival illustration</title><desc id="d">Editorial illustration of a woodland festival with tall trees, lanterns, a small music stage and people among the trees.</desc><rect width="1200" height="600" fill="#dcebdc"/><rect y="420" width="1200" height="180" fill="#789b62"/><g fill="#1f554d"><rect x="100" y="80" width="48" height="420" rx="20"/><circle cx="125" cy="92" r="92"/><rect x="280" y="40" width="52" height="460" rx="20"/><circle cx="306" cy="58" r="105"/><rect x="930" y="60" width="50" height="440" rx="20"/><circle cx="955" cy="72" r="96"/><rect x="1080" y="95" width="44" height="405" rx="18"/><circle cx="1102" cy="108" r="82"/></g><g fill="#3c765e"><circle cx="195" cy="180" r="100"/><circle cx="405" cy="145" r="120"/><circle cx="815" cy="160" r="120"/><circle cx="1015" cy="180" r="105"/></g><g stroke="#f0d07a" stroke-width="5" fill="none"><path d="M170 150 C400 205 705 80 1010 150"/></g><g fill="#f8791b"><circle cx="260" cy="166" r="14"/><circle cx="405" cy="170" r="14"/><circle cx="560" cy="143" r="14"/><circle cx="720" cy="132" r="14"/><circle cx="865" cy="143" r="14"/></g><g><rect x="455" y="265" width="320" height="170" rx="12" fill="#fff4df"/><path d="M430 265h370l-65-70H500z" fill="#0f6470"/><rect x="505" y="315" width="220" height="28" rx="14" fill="#f8791b"/><rect x="555" y="365" width="120" height="18" rx="9" fill="#173e42"/></g><g fill="#173e42"><circle cx="365" cy="438" r="24"/><rect x="343" y="462" width="44" height="83" rx="20"/><circle cx="430" cy="458" r="22"/><rect x="410" y="480" width="40" height="69" rx="18"/><circle cx="825" cy="442" r="24"/><rect x="803" y="466" width="44" height="81" rx="19"/><circle cx="885" cy="460" r="21"/><rect x="866" y="482" width="38" height="65" rx="17"/></g><g fill="#f5cf63"><circle cx="520" cy="478" r="15"/><circle cx="690" cy="486" r="16"/></g><path d="M65 515 C280 470 350 560 565 510 S900 465 1140 515" stroke="#e8dfbc" stroke-width="34" fill="none" stroke-linecap="round"/></svg>